<svg width="100" height="80" viewBox="0 0 100 80" fill="none" xmlns="http://www.w3.org/2000/svg">
<mask id="path-1-inside-1_189_46" fill="white">
<path d="M0 10C0 4.47715 4.47715 0 10 0H90C95.5228 0 100 4.47715 100 10V70C100 75.5229 95.5229 80 90 80H10C4.47716 80 0 75.5229 0 70V10Z"/>
</mask>
<path d="M75.375 41.75L76.9557 43.6869L79.329 41.75L76.9557 39.8131L75.375 41.75ZM21 39.25C19.6193 39.25 18.5 40.3693 18.5 41.75C18.5 43.1307 19.6193 44.25 21 44.25V39.25ZM52.0443 25.9369L73.7943 43.6869L76.9557 39.8131L55.2057 22.0631L52.0443 25.9369ZM73.7943 39.8131L52.0443 57.5631L55.2057 61.4369L76.9557 43.6869L73.7943 39.8131ZM75.375 39.25H21V44.25H75.375V39.25ZM5 10C5 7.23858 7.23858 5 10 5V-5C1.71573 -5 -5 1.71573 -5 10H5ZM10 5H90V-5H10V5ZM90 5C92.7614 5 95 7.23858 95 10H105C105 1.71573 98.2843 -5 90 -5V5ZM95 10V70H105V10H95ZM95 70C95 72.7614 92.7614 75 90 75V85C98.2843 85 105 78.2843 105 70H95ZM90 75H10V85H90V75ZM10 75C7.23858 75 5 72.7614 5 70H-5C-5 78.2843 1.71573 85 10 85V75ZM5 70V10H-5V70H5Z" fill="white" mask="url(#path-1-inside-1_189_46)"/>
</svg>
